<svg width="167" height="167" viewBox="0 0 167 167" fill="none" xmlns="http://www.w3.org/2000/svg">
<g opacity="0.6">
<path opacity="0.6" d="M50.3933 16.5091C50.4937 16.7395 50.6407 16.9468 50.825 17.1179C51.0092 17.2892 51.2267 17.4204 51.464 17.5036C51.7013 17.5868 51.9532 17.6201 52.2041 17.6016C52.4548 17.583 52.6991 17.5128 52.9214 17.3956C54.1801 16.8264 54.4537 15.8305 53.7423 14.2764L50.4589 7.06396L52.3195 6.22119L55.6029 13.4227C56.7958 16.0384 55.986 18.0522 53.7205 19.081C53.2691 19.3312 52.7712 19.4861 52.2577 19.5363C51.744 19.5866 51.2256 19.531 50.7343 19.373C50.2431 19.2151 49.7894 18.9582 49.4013 18.618C49.0132 18.2779 48.6991 17.8618 48.478 17.3956L50.3933 16.5091Z" fill="#424928"/>
<path opacity="0.6" d="M63.9418 15.2943C60.7898 16.1917 57.8567 14.2874 56.8607 10.8179C55.8648 7.34863 57.3642 4.1856 60.5052 3.2882C63.6463 2.3908 66.6013 4.2732 67.5972 7.75353C68.5932 11.2339 67.0829 14.3968 63.9418 15.2943ZM61.0087 5.0503C58.962 5.63027 58.1522 7.78637 58.8198 10.2489C59.4873 12.7114 61.3588 14.1123 63.4055 13.5322C65.4521 12.9521 66.2838 10.7851 65.5943 8.3226C64.9048 5.8601 63.0553 4.4593 61.0087 5.0503Z" fill="#424928"/>
<path opacity="0.6" d="M70.0274 8.57433L69.2065 1.35099L71.2422 1.12116L72.0411 8.12569C72.3038 10.4349 73.3983 11.409 75.2041 11.1901C77.01 10.9712 77.8636 9.80019 77.601 7.49083L76.8019 0.486425L78.8376 0.256592L79.6584 7.50186C80.0306 10.7852 78.2905 12.6895 75.412 12.974C72.5336 13.2586 70.3666 11.8796 70.0274 8.57433Z" fill="#424928"/>
<path opacity="0.6" d="M84.4193 7.43623L84.2332 12.3612L82.1866 12.2517L82.6572 0.212891L87.3195 0.387958C89.8259 0.486458 91.3909 1.81069 91.2924 4.17469C91.3026 4.6123 91.2253 5.04753 91.0648 5.4548C90.9044 5.86206 90.6642 6.23308 90.3582 6.54605C90.0523 6.85915 89.687 7.10789 89.2835 7.27771C88.8801 7.44739 88.4468 7.53486 88.009 7.53472L91.2924 12.6567L88.9722 12.5691L85.7874 7.53472L84.4193 7.43623ZM84.485 5.71786L87.0679 5.81636C88.425 5.87113 89.2567 5.17072 89.2567 4.05439C89.2567 2.93806 88.5563 2.17186 87.1993 2.11722L84.5944 2.01872L84.485 5.71786Z" fill="#424928"/>
<path opacity="0.6" d="M102.105 14.6596L100.562 14.353L96.1845 4.50302L94.4772 13.1382L92.5509 12.7552L94.893 0.891357L96.7864 1.27446L100.88 10.632L102.51 2.40169L104.437 2.78479L102.105 14.6596Z" fill="#424928"/>
<path opacity="0.6" d="M113.827 5.9587L113.893 18.9279L111.956 18.1837V14.6049L107.578 12.9741L105.29 15.6445L103.353 14.9113L111.956 5.2583L113.827 5.9587ZM108.869 11.5404L111.956 12.7115V7.98347L108.869 11.5404Z" fill="#424928"/>
<path opacity="0.6" d="M120.864 9.01221L122.648 10.019L117.647 18.9279L122.724 21.7624L121.805 23.4041L114.943 19.5735L120.864 9.01221Z" fill="#424928"/>
<path opacity="0.6" d="M136.22 30.5727C136.036 30.7447 135.89 30.9524 135.79 31.183C135.691 31.4135 135.639 31.6621 135.639 31.9135C135.639 32.1647 135.691 32.4133 135.79 32.6439C135.89 32.8744 136.036 33.0822 136.22 33.2541C137.16 34.25 138.2 34.2063 139.437 33.0243L145.204 27.552L146.606 29.0405L140.849 34.5127C138.758 36.4827 136.591 36.3733 134.884 34.5127C134.497 34.1661 134.184 33.7431 133.969 33.2704C133.752 32.7976 133.635 32.2851 133.626 31.7653C133.617 31.2454 133.715 30.7291 133.915 30.2489C134.115 29.7688 134.41 29.335 134.786 28.9749L136.22 30.5727Z" fill="#424928"/>
<path opacity="0.6" d="M141.767 43.0056C139.896 40.3132 140.739 36.9204 143.705 34.8629C146.671 32.8053 150.14 33.1774 152.011 35.8697C153.883 38.562 153.107 41.9549 150.086 44.0234C147.065 46.0919 143.628 45.6979 141.767 43.0056ZM150.523 36.9095C149.308 35.1693 147 35.0927 144.898 36.5592C142.797 38.0258 142.063 40.2147 143.278 41.9549C144.493 43.6951 146.813 43.7936 148.915 42.327C151.016 40.8604 151.728 38.6277 150.513 36.9204L150.523 36.9095Z" fill="#424928"/>
<path opacity="0.6" d="M150.086 46.5735L156.653 43.4543L157.527 45.3148L151.158 48.3355C149.056 49.3315 148.498 50.6886 149.276 52.3193C150.053 53.95 151.465 54.3878 153.554 53.4137L159.924 50.3822L160.811 52.2426L154.244 55.3618C151.256 56.7847 148.882 55.7449 147.677 53.173C146.474 50.601 147.076 48.0071 150.086 46.5735Z" fill="#424928"/>
<path opacity="0.6" d="M155.821 59.849L151.114 61.2391L150.535 59.28L162.136 55.8435L163.46 60.3197C164.171 62.7166 163.46 64.6209 161.151 65.2995C160.744 65.4473 160.312 65.5133 159.88 65.4936C159.447 65.4739 159.023 65.3691 158.632 65.185C158.24 65.001 157.889 64.7412 157.598 64.4209C157.307 64.1006 157.082 63.726 156.938 63.3185L153.15 68.1012L152.493 65.9123L156.236 61.2937L155.821 59.849ZM157.463 59.3676L158.196 61.841C158.246 62.0989 158.349 62.3433 158.499 62.5584C158.65 62.7737 158.845 62.9547 159.071 63.0898C159.295 63.2251 159.546 63.3112 159.807 63.343C160.067 63.3747 160.333 63.3512 160.583 63.2739C160.834 63.1966 161.067 63.0674 161.264 62.8947C161.462 62.7218 161.621 62.5093 161.731 62.271C161.842 62.0326 161.901 61.7736 161.905 61.5109C161.907 61.2484 161.856 60.9878 161.752 60.7466L161.019 58.3278L157.463 59.3676Z" fill="#424928"/>
<path opacity="0.6" d="M154.639 78.958L154.43 77.404L162.366 70.115L153.61 71.2094L153.392 69.2722L165.43 67.6853L165.682 69.6005L158.12 76.4846L166.447 75.3901L166.7 77.3383L154.639 78.958Z" fill="#424928"/>
<path opacity="0.6" d="M166.677 87.1992L154.42 91.4565L154.486 89.3662L157.878 88.2717L158.021 83.6532L154.738 82.307L154.803 80.2385L166.677 85.2292V87.1992ZM159.794 84.3099L159.684 87.5932L164.215 86.0938L159.794 84.3099Z" fill="#424928"/>
<path opacity="0.6" d="M166.053 94.8385L165.682 96.8522L155.58 95.0244L154.551 100.737L152.745 100.42L154.147 92.6824L166.053 94.8385Z" fill="#424928"/>
<path opacity="0.6" d="M150.599 116.333C150.38 116.213 150.137 116.139 149.888 116.117C149.637 116.094 149.385 116.123 149.147 116.202C148.909 116.281 148.69 116.408 148.502 116.576C148.316 116.743 148.165 116.948 148.061 117.177C147.415 118.391 147.798 119.365 149.308 120.153L156.302 123.863L155.35 125.68L148.346 121.958C145.806 120.612 145.227 118.523 146.386 116.333C146.59 115.856 146.891 115.425 147.269 115.068C147.646 114.711 148.094 114.436 148.582 114.26C149.071 114.083 149.59 114.009 150.108 114.042C150.627 114.075 151.134 114.214 151.596 114.451L150.599 116.333Z" fill="#424928"/>
<path opacity="0.6" d="M140.608 125.592C142.555 122.966 146.08 122.681 148.947 124.827C151.814 126.971 152.602 130.386 150.655 133.023C148.707 135.662 145.182 135.968 142.304 133.811C139.426 131.656 138.66 128.23 140.608 125.592ZM149.177 131.929C150.447 130.222 149.779 128.012 147.71 126.457C145.642 124.903 143.333 124.936 142.085 126.654C140.837 128.373 141.472 130.594 143.54 132.126C145.609 133.659 147.919 133.637 149.167 131.929H149.177Z" fill="#424928"/>
<path opacity="0.6" d="M139.897 134.622L144.964 139.832L143.497 141.254L138.584 136.198C136.963 134.534 135.498 134.447 134.205 135.705C132.914 136.963 132.947 138.43 134.566 140.082L139.481 145.151L138.014 146.573L132.937 141.342C130.626 138.978 130.846 136.395 132.937 134.381C135.026 132.367 137.577 132.235 139.897 134.622Z" fill="#424928"/>
<path opacity="0.6" d="M129.171 144.34L126.337 140.345L128 139.153L135.005 149.003L131.196 151.705C129.161 153.15 127.113 153.063 125.724 151.126C125.452 150.789 125.248 150.403 125.126 149.988C125.004 149.571 124.966 149.137 125.012 148.706C125.059 148.276 125.19 147.86 125.399 147.48C125.608 147.101 125.889 146.766 126.227 146.497L120.481 144.461L122.375 143.115L127.956 145.161L129.171 144.34ZM130.167 145.742L128.055 147.23C127.833 147.364 127.642 147.542 127.494 147.754C127.344 147.965 127.242 148.205 127.191 148.459C127.139 148.712 127.141 148.975 127.196 149.227C127.251 149.481 127.357 149.718 127.51 149.928C127.661 150.137 127.855 150.313 128.078 150.445C128.3 150.575 128.549 150.659 128.806 150.689C129.062 150.719 129.324 150.695 129.57 150.621C129.819 150.544 130.047 150.418 130.244 150.25L132.356 148.762L130.167 145.742Z" fill="#424928"/>
<path opacity="0.6" d="M110.73 149.429L112.142 148.729L121.609 153.862L117.679 145.971L119.452 145.095L124.837 155.93L123.107 156.795L114.145 151.87L117.876 159.388L116.115 160.264L110.73 149.429Z" fill="#424928"/>
<path opacity="0.6" d="M106.811 163.394L98.822 153.205L100.814 152.604L103.003 155.438L107.435 154.092L107.643 150.535L109.624 149.932L108.672 162.858L106.811 163.394ZM107.326 155.953L104.163 156.915L107.041 160.714L107.326 155.953Z" fill="#424928"/>
<path opacity="0.6" d="M99.3692 165.31L97.3444 165.606L95.845 155.448L90.0882 156.302L89.8256 154.486L97.5962 153.336L99.3692 165.31Z" fill="#424928"/>
<path opacity="0.6" d="M74.0222 157.605C74.0724 157.354 74.0696 157.095 74.0143 156.846C73.959 156.596 73.8522 156.361 73.7008 156.155C73.5494 155.95 73.3567 155.777 73.135 155.651C72.9133 155.523 72.6676 155.443 72.4134 155.416C71.0454 155.208 70.2245 155.875 69.9947 157.605L68.7471 165.419L66.7223 165.101L67.97 157.277C68.4187 154.442 70.1589 153.205 72.6651 153.599C73.1894 153.635 73.7004 153.779 74.1653 154.025C74.6303 154.27 75.0388 154.609 75.3645 155.022C75.6904 155.434 75.9261 155.909 76.0569 156.419C76.1876 156.929 76.2103 157.459 76.1235 157.977L74.0222 157.605Z" fill="#424928"/>
<path opacity="0.6" d="M62.049 151.147C65.1681 152.132 66.5691 155.339 65.4745 158.809C64.3801 162.278 61.3923 164.062 58.2731 163.077C55.154 162.092 53.7312 158.885 54.8256 155.415C55.92 151.947 58.9298 150.162 62.049 151.147ZM58.8313 161.304C60.8561 161.949 62.7385 160.603 63.5045 158.163C64.2707 155.723 63.5045 153.533 61.4908 152.887C59.4771 152.242 57.5727 153.589 56.7956 156.039C56.0185 158.491 56.8065 160.669 58.8313 161.304Z" fill="#424928"/>
<path opacity="0.6" d="M53.2821 153.38L49.9988 159.848L48.1819 158.918L51.3887 152.647C52.4831 150.578 52.0673 149.167 50.4474 148.335C48.8277 147.503 47.4706 148.028 46.4089 150.096L43.2023 156.368L41.3745 155.438L44.6578 148.947C46.1682 146.004 48.6744 145.391 51.2245 146.704C53.7746 148.017 54.7924 150.414 53.2821 153.38Z" fill="#424928"/>
<path opacity="0.6" d="M40.6411 146.365L43.5195 142.392L45.183 143.595L38.091 153.445L34.3043 150.71C32.2795 149.243 31.7104 147.273 33.0894 145.358C33.3202 144.99 33.6213 144.672 33.9757 144.423C34.33 144.172 34.7303 143.995 35.1537 143.9C35.577 143.806 36.0149 143.795 36.4421 143.871C36.8692 143.946 37.2771 144.106 37.6424 144.34L37.7298 138.244L39.6124 139.612L39.4591 145.565L40.6411 146.365ZM39.6342 147.755L37.5328 146.244C37.3398 146.062 37.1101 145.923 36.8588 145.835C36.6076 145.748 36.3407 145.715 36.076 145.74C35.8113 145.764 35.5547 145.844 35.3234 145.975C35.0921 146.107 34.8915 146.285 34.7348 146.501C34.578 146.715 34.4688 146.96 34.4145 147.22C34.3601 147.482 34.3618 147.75 34.4194 148.01C34.4771 148.27 34.5894 148.514 34.7487 148.725C34.9081 148.938 35.111 149.115 35.344 149.243L37.4343 150.753L39.6342 147.755Z" fill="#424928"/>
<path opacity="0.6" d="M29.8725 130.561L30.9671 131.656L29.1502 142.261L35.3996 136.033L36.8004 137.423L28.2637 146.015L26.8957 144.646L28.6796 134.578L22.7587 140.532L21.3578 139.142L29.8725 130.561Z" fill="#424928"/>
<path opacity="0.6" d="M15.3599 131.328L22.4519 120.481L23.6776 122.178L21.6858 125.143L24.3999 128.898L27.8474 127.946L29.0514 129.62L16.5199 132.904L15.3599 131.328ZM22.5723 129.401L20.6351 126.719L17.9756 130.682L22.5723 129.401Z" fill="#424928"/>
<path opacity="0.6" d="M11.1793 124.881L10.238 123.054L19.3548 118.347L16.739 113.192L18.3588 112.35L21.9704 119.332L11.1793 124.881Z" fill="#424928"/>
<path opacity="0.6" d="M10.2923 98.4282C10.5375 98.3892 10.7722 98.3005 10.982 98.1677C11.1918 98.0351 11.3724 97.8609 11.5127 97.6562C11.653 97.4513 11.7501 97.22 11.7981 96.9764C11.8461 96.7328 11.8439 96.4821 11.7918 96.2392C11.5619 94.8822 10.6974 94.3459 8.97901 94.6414L1.17571 95.9657L0.825439 93.9519L8.63977 92.6167C11.4743 92.1351 13.2145 93.4375 13.6304 95.9C13.7607 96.4033 13.7855 96.9281 13.7036 97.4413C13.6216 97.9547 13.4346 98.4456 13.1541 98.8832C12.8736 99.321 12.5057 99.6961 12.0736 99.985C11.6414 100.274 11.1543 100.47 10.6426 100.562L10.2923 98.4282Z" fill="#424928"/>
<path opacity="0.6" d="M12.58 84.9994C12.6456 88.2828 10.0518 90.6248 6.45105 90.7015C2.85041 90.7781 0.158082 88.5126 0.0924158 85.2293C0.0267491 81.946 2.59865 79.5819 6.22122 79.5163C9.84391 79.4506 12.5034 81.727 12.58 84.9994ZM1.92005 85.2184C1.92005 87.3415 3.84631 88.6877 6.40731 88.633C8.96831 88.5783 10.785 87.1665 10.785 85.0323C10.785 82.8981 8.86982 81.552 6.30882 81.6067C3.74782 81.6614 1.87632 83.0951 1.92005 85.2184Z" fill="#424928"/>
<path opacity="0.6" d="M7.62218 77.415L0.420776 76.3206L0.716276 74.2958L7.69887 75.2917C9.99721 75.6311 11.212 74.8103 11.4747 73.0153C11.7374 71.2204 10.7961 70.0932 8.49778 69.732L1.51518 68.7361L1.79978 66.7004L9.02311 67.7948C12.3064 68.2654 13.6963 70.4434 13.2805 73.2671C12.8646 76.0908 10.9165 77.8856 7.62218 77.415Z" fill="#424928"/>
<path opacity="0.6" d="M10.1724 63.1763L14.8675 64.6209L14.2655 66.58L2.69727 63.034L4.06537 58.5687C4.7986 56.1719 6.484 55.0008 8.7386 55.6903C9.16084 55.7903 9.55891 55.9732 9.91009 56.2281C10.2613 56.483 10.5584 56.805 10.7842 57.1754C11.0101 57.5459 11.1605 57.9575 11.2263 58.3863C11.2922 58.8152 11.2725 59.2528 11.1683 59.674L16.9578 57.7807L16.2794 59.9695L10.5992 61.7535L10.1724 63.1763ZM8.5307 62.7057L9.29676 60.2432C9.40787 60.001 9.46592 59.738 9.46724 59.4716C9.46842 59.2053 9.41286 58.9417 9.30412 58.6986C9.19524 58.4554 9.03581 58.2383 8.83644 58.0616C8.63695 57.8851 8.40212 57.7531 8.1476 57.6746C7.89307 57.5959 7.62476 57.5727 7.36052 57.6062C7.09628 57.6396 6.84215 57.7291 6.61533 57.8687C6.38839 58.0082 6.19388 58.1945 6.04482 58.4153C5.89576 58.6361 5.79542 58.8861 5.75077 59.1487L4.9956 61.6112L8.5307 62.7057Z" fill="#424928"/>
<path opacity="0.6" d="M21.7081 47.8978L21.0186 49.3096L10.3806 50.9951L18.2934 54.8695L17.4289 56.6425L6.56104 51.3235L7.4038 49.5723L17.5165 48.0291L9.9757 44.33L10.8403 42.5679L21.7081 47.8978Z" fill="#424928"/>
<path opacity="0.6" d="M16.2788 34.4033L28.7774 37.6429L27.5626 39.3503L24.1151 38.409L21.4227 42.1848L23.4802 45.1946L22.2764 46.8691L15.1296 36.0669L16.2788 34.4033ZM20.4049 40.6197L22.331 37.9274L17.7235 36.6797L20.4049 40.6197Z" fill="#424928"/>
<path opacity="0.6" d="M21.0288 28.3731L22.4406 26.9065L29.8719 34.0204L33.8666 29.8724L35.1909 31.142L29.7187 36.8113L21.0288 28.3731Z" fill="#424928"/>
<path opacity="0.57" d="M13.3682 107.118C14.78 110.226 12.7224 115.666 12.7224 115.666C12.7224 115.666 7.25014 113.652 5.86024 110.544C4.47034 107.435 5.521 105.345 7.6004 104.393C9.6798 103.441 11.9563 104.01 13.3682 107.118Z" fill="#8E9373"/>
<path opacity="0.6" d="M8.15845 102.948C8.3259 105.316 8.94251 107.63 9.97518 109.767" stroke="#424928" stroke-width="0.416667"/>
<path opacity="0.6" d="M13.2803 107.162C13.8627 108.897 13.9312 110.763 13.4773 112.536C13.3374 113.275 13.1546 114.006 12.93 114.725C12.8424 115.009 12.7658 115.228 12.7221 115.381V115.523H12.5797C12.4266 115.523 12.2077 115.37 11.945 115.25C11.2567 114.945 10.5845 114.606 9.93127 114.232C8.29302 113.408 6.92834 112.127 6.00217 110.544C5.37204 109.378 5.21522 108.014 5.56444 106.735C5.7466 106.243 6.02962 105.794 6.39525 105.417C6.76075 105.04 7.20098 104.743 7.68757 104.546C8.15696 104.307 8.67113 104.169 9.19699 104.141C9.72285 104.113 10.2488 104.195 10.7411 104.382C11.911 104.951 12.8194 105.945 13.2803 107.162Z" stroke="#424928" stroke-width="0.416667"/>
<path opacity="0.6" d="M11.3212 107.994C11.3212 107.994 9.77799 106.669 8.88059 107.074C7.98319 107.479 8.11452 109.11 8.11452 109.11" stroke="#424928" stroke-width="0.416667"/>
<path opacity="0.57" d="M42.4692 23.0321C40.0615 25.4946 34.25 25.4946 34.25 25.4946C34.25 25.4946 34.25 19.6831 36.6249 17.2644C38.9999 14.8456 41.3748 15.0754 42.9946 16.7281C44.6144 18.3807 44.888 20.6134 42.4692 23.0321Z" fill="#8E9373"/>
<path opacity="0.6" d="M44.5486 16.739C42.4095 17.7304 40.4781 19.1196 38.8575 20.8323" stroke="#424928" stroke-width="0.416667"/>
<path opacity="0.6" d="M42.4036 22.9662C40.9859 24.1297 39.2586 24.8527 37.4348 25.0457C36.7107 25.1744 35.9799 25.2621 35.246 25.3084H34.5565H34.4032V25.1551C34.4032 24.9909 34.4032 24.7611 34.4032 24.4656C34.4362 23.7103 34.513 22.9575 34.633 22.211C34.831 20.3905 35.5491 18.6655 36.7015 17.2423C37.572 16.2409 38.795 15.6136 40.1162 15.4912C40.6443 15.4929 41.1662 15.6048 41.6486 15.8195C42.1311 16.0344 42.5633 16.3475 42.9179 16.7389C43.3014 17.0983 43.6049 17.5346 43.8086 18.0192C44.0122 18.5039 44.1115 19.026 44.0999 19.5515C43.9917 20.8647 43.3847 22.0866 42.4036 22.9662Z" stroke="#424928" stroke-width="0.416667"/>
<path opacity="0.6" d="M40.9369 21.4341C40.9369 21.4341 41.6373 19.5189 40.9369 18.8184C40.2363 18.118 38.7479 18.8184 38.7479 18.8184" stroke="#424928" stroke-width="0.416667"/>
<path opacity="0.57" d="M129.325 25.0237C126.512 23.0866 125.472 17.3627 125.472 17.3627C125.472 17.3627 131.185 16.2681 133.998 18.2272C136.811 20.1863 136.963 22.5065 135.672 24.389C134.381 26.2714 132.137 26.9609 129.325 25.0237Z" fill="#8E9373"/>
<path opacity="0.6" d="M135.945 25.9213C134.586 23.9946 132.874 22.3422 130.901 21.051" stroke="#424928" stroke-width="0.416667"/>
<path opacity="0.6" d="M129.38 24.9363C127.983 23.7499 126.959 22.1835 126.435 20.4271C126.177 19.7101 125.957 18.9793 125.779 18.2383C125.713 17.9646 125.658 17.7348 125.625 17.5706V17.4175H125.779L126.458 17.319C127.209 17.23 127.965 17.1789 128.723 17.1657C130.544 17.0125 132.368 17.3927 133.977 18.2601C135.121 18.9332 135.96 20.0237 136.318 21.3027C136.471 22.3481 136.222 23.4127 135.625 24.2832C135.026 25.1538 134.12 25.7662 133.09 25.9979C131.762 26.1354 130.433 25.7551 129.38 24.9363Z" stroke="#424928" stroke-width="0.416667"/>
<path opacity="0.6" d="M130.626 23.229C130.626 23.229 132.641 23.5573 133.199 22.7475C133.757 21.9376 132.805 20.5586 132.805 20.5586" stroke="#424928" stroke-width="0.416667"/>
<path opacity="0.57" d="M153.544 108.672C154.18 105.312 159.017 102.106 159.017 102.106C159.017 102.106 162.3 106.888 161.676 110.248C161.052 113.608 158.951 114.692 156.718 114.265C154.486 113.838 152.953 112.01 153.544 108.672Z" fill="#8E9373"/>
<path opacity="0.6" d="M155.438 115.075C156.653 113.058 157.472 110.83 157.857 108.508" stroke="#424928" stroke-width="0.416667"/>
<path opacity="0.6" d="M153.687 108.672C154.21 106.918 155.229 105.353 156.62 104.163C157.166 103.641 157.74 103.148 158.338 102.686L158.896 102.27L159.017 102.182L159.105 102.313L159.466 102.893C159.865 103.541 160.231 104.21 160.56 104.896C161.429 106.511 161.809 108.344 161.654 110.172C161.496 111.489 160.838 112.696 159.815 113.542C158.918 114.101 157.841 114.299 156.804 114.096C155.766 113.893 154.844 113.304 154.223 112.448C153.566 111.305 153.375 109.953 153.687 108.672Z" stroke="#424928" stroke-width="0.416667"/>
<path opacity="0.6" d="M155.733 109.121C155.733 109.121 156.226 111.102 157.2 111.31C158.173 111.518 158.994 110.095 158.994 110.095" stroke="#424928" stroke-width="0.416667"/>
<path opacity="0.57" d="M82.504 157.638C85.9077 157.353 90.3402 161.108 90.3402 161.108C90.3402 161.108 86.6192 165.573 83.2154 165.868C79.8116 166.164 78.2028 164.489 78.0277 162.169C77.8527 159.848 79.1221 157.923 82.504 157.638Z" fill="#8E9373"/>
<path opacity="0.6" d="M76.8236 161.206C79.0983 161.834 81.4716 162.023 83.8171 161.764" stroke="#424928" stroke-width="0.416667"/>
<path opacity="0.6" d="M82.5152 157.736C84.3451 157.769 86.1269 158.327 87.6481 159.345C88.3016 159.73 88.9337 160.15 89.5415 160.603L90.0778 161.019L90.1982 161.118L90.0669 161.206L89.6072 161.709C89.0858 162.258 88.5341 162.777 87.9546 163.263C86.6371 164.538 84.974 165.398 83.1719 165.737C81.8629 165.941 80.5256 165.631 79.4398 164.871C78.6519 164.165 78.1626 163.184 78.0712 162.129C77.9796 161.075 78.2929 160.024 78.9473 159.191C79.905 158.265 81.183 157.744 82.5152 157.736Z" stroke="#424928" stroke-width="0.416667"/>
<path opacity="0.6" d="M82.6357 159.86C82.6357 159.86 80.8736 160.878 80.9612 161.851C81.0486 162.825 82.6246 163.252 82.6246 163.252" stroke="#424928" stroke-width="0.416667"/>
</g>
</svg>
